<svg width="265" height="75" viewBox="0 0 265 75" fill="none" xmlns="http://www.w3.org/2000/svg">
<path d="M119.877 23.9084C121.47 23.3854 123.075 22.8986 124.691 22.4483L124.993 22.3663C127.018 21.8173 128.805 21.4339 129.688 21.4339C130.572 21.4339 132.357 21.8173 134.382 22.3663C136.34 22.8978 138.323 23.5238 139.499 23.9086L139.501 23.9092C139.567 23.9306 139.626 23.9701 139.671 24.0232C139.715 24.076 139.744 24.1402 139.754 24.2085C140.738 31.5957 138.465 36.9634 135.768 40.4898L135.767 40.4918C134.626 41.9997 133.265 43.3283 131.73 44.4333C131.123 44.8596 130.592 45.1644 130.189 45.3545L130.187 45.3552C129.986 45.4509 129.832 45.5095 129.724 45.5422L129.716 45.5447L129.707 45.5475C129.7 45.5499 129.693 45.5522 129.686 45.5543C129.681 45.5526 129.675 45.5508 129.67 45.5489L129.661 45.5456L129.651 45.5427C129.544 45.5098 129.389 45.4509 129.188 45.3552L129.186 45.3542C128.78 45.1641 128.252 44.8613 127.645 44.4336C126.11 43.3286 124.75 41.9999 123.608 40.4918L123.607 40.4899C120.91 36.9617 118.638 31.5958 119.621 24.2088C119.631 24.1405 119.66 24.0763 119.705 24.0234C119.75 23.9701 119.808 23.9305 119.875 23.909L119.875 23.909L119.877 23.9084ZM124.249 19.5325L124.248 19.5329C122.483 20.0185 120.731 20.5466 118.992 21.1168L118.991 21.1171C118.403 21.3113 117.882 21.6673 117.487 22.1444L117.858 22.451L117.487 22.1444C117.093 22.6213 116.841 23.1997 116.76 23.8133C115.66 32.0735 118.214 38.2178 121.326 42.289C122.645 44.0303 124.219 45.5638 125.994 46.8382C126.617 47.2858 127.277 47.6794 127.966 48.0147L127.966 48.0147L127.972 48.0176C128.49 48.2609 129.12 48.5 129.688 48.5C130.255 48.5 130.886 48.2611 131.403 48.0173L131.403 48.0173L131.409 48.0147C132.098 47.6794 132.758 47.2859 133.381 46.8383C135.156 45.5639 136.73 44.0303 138.05 42.2889C141.161 38.2177 143.715 32.0737 142.615 23.8137C142.535 23.2 142.282 22.6214 141.888 22.1444L141.503 22.4631L141.888 22.1444C141.493 21.6673 140.972 21.3113 140.384 21.1171L140.382 21.1166C139.187 20.7259 137.149 20.0794 135.125 19.5324C133.17 19.0008 131.016 18.5 129.688 18.5C128.359 18.5 126.205 19.0009 124.249 19.5325Z" fill="#40916C" stroke="#40916C"/>
<path d="M128.972 38.5313H128.973H130.402C130.402 38.5313 130.402 38.5313 130.402 38.5313C130.609 38.5313 130.814 38.4855 131.001 38.3972C131.189 38.3088 131.354 38.18 131.486 38.0201C131.618 37.8602 131.713 37.673 131.765 37.4721C131.816 37.2712 131.822 37.0614 131.782 36.8579L131.161 33.6445C131.619 33.4085 132.016 33.0648 132.316 32.6404C132.7 32.0966 132.907 31.4469 132.906 30.781C132.906 30.191 132.743 29.6124 132.437 29.1085C132.13 28.6046 131.69 28.1947 131.166 27.9236C130.642 27.6526 130.053 27.5309 129.465 27.5717C128.876 27.6125 128.31 27.8143 127.828 28.1551C127.347 28.4959 126.968 28.9625 126.734 29.504C126.499 30.0454 126.418 30.6409 126.499 31.2253C126.58 31.8098 126.821 32.3606 127.194 32.8178C127.474 33.1618 127.822 33.4428 128.214 33.6446L127.594 36.8579C127.594 36.8579 127.594 36.858 127.594 36.8581C127.555 37.0614 127.561 37.2708 127.612 37.4714L128.093 37.3492L127.612 37.4714C127.663 37.6722 127.758 37.8591 127.889 38.019C128.021 38.1789 128.186 38.3077 128.374 38.3963C128.561 38.4848 128.765 38.5309 128.972 38.5313Z" fill="#40916C" stroke="#40916C"/>
<path d="M21.5198 4.92482e-05C21.4559 -0.00101362 21.3927 0.0151443 21.3368 0.0468999C21.2808 0.0786555 21.234 0.124891 21.2011 0.180964L0.0504695 37.3155C0.0174322 37.3724 0 37.4374 0 37.5036C0 37.5698 0.0174322 37.6348 0.0504695 37.6918L21.4384 74.8155C21.5801 75.0615 21.9342 75.0615 22.0759 74.8155L43.2265 37.6846C43.2585 37.627 43.2747 37.5616 43.2734 37.4954C43.2722 37.4292 43.2535 37.3646 43.2194 37.3083L21.8386 0.180964C21.8057 0.124891 21.7589 0.0786555 21.7029 0.0468999C21.647 0.0151443 21.5838 -0.00101362 21.5198 4.92482e-05ZM31.6595 4.92482e-05C31.5955 -0.000276676 31.5326 0.0166132 31.477 0.0490225C31.4214 0.0814317 31.3751 0.128219 31.3428 0.184684C31.3105 0.24115 31.2933 0.305304 31.2929 0.370704C31.2926 0.436104 31.3091 0.500446 31.3408 0.557266L49.7077 33.0025C49.7398 33.0601 49.7862 33.1081 49.8421 33.1417C49.898 33.1754 49.9616 33.1935 50.0264 33.1943H61.0657C61.349 33.1943 61.5261 32.8758 61.3845 32.6262L43.0176 0.184582C42.9848 0.128085 42.9382 0.0813281 42.8822 0.0489556C42.8263 0.0165832 42.7631 -0.00027742 42.6988 4.92482e-05H31.6631H31.6595ZM52.5233 4.92482e-05C52.4595 -0.000110942 52.3967 0.0170133 52.3415 0.0496781C52.2862 0.0823429 52.2404 0.129382 52.2088 0.186006C52.1771 0.24263 52.1607 0.306817 52.1612 0.372032C52.1617 0.437247 52.1791 0.501161 52.2116 0.557266L73.1568 37.4964L52.2116 74.4356C52.1791 74.4917 52.1617 74.5556 52.1612 74.6208C52.1607 74.686 52.1771 74.7502 52.2088 74.8068C52.2404 74.8634 52.2862 74.9105 52.3415 74.9431C52.3967 74.9758 52.4595 74.9929 52.5233 74.9928H63.5838C63.6468 74.9937 63.7089 74.9774 63.7637 74.9456C63.8185 74.9138 63.864 74.8676 63.8955 74.8119L84.9505 37.6809C84.9829 37.6251 85 37.5613 85 37.4964C85 37.4315 84.9829 37.3677 84.9505 37.3119L63.8955 0.184582C63.8644 0.128154 63.8191 0.0812682 63.7643 0.0488111C63.7095 0.0163541 63.6472 -0.000485317 63.5838 4.92482e-05H52.5233ZM49.7254 42.3341C49.6611 42.3332 49.5978 42.3503 49.5423 42.3834C49.4867 42.4166 49.4411 42.4646 49.4102 42.5222L31.3443 74.4356C31.2027 74.6852 31.3797 74.9928 31.6631 74.9928H42.7024C42.7663 74.9935 42.8293 74.9771 42.8852 74.9454C42.9411 74.9137 42.9879 74.8677 43.0211 74.8119L61.0834 42.8985C61.116 42.8416 61.1332 42.7769 61.1333 42.7109C61.1334 42.645 61.1164 42.5802 61.084 42.5232C61.0516 42.4662 61.005 42.419 60.9489 42.3864C60.8928 42.3538 60.8292 42.337 60.7647 42.3377H49.7219L49.7254 42.3341Z" fill="#40916C"/>
<path d="M104.027 44.1328V19.5625H99.3203V48H117.602V44.1328H104.027Z" fill="#40916C"/>
<path d="M166.109 39.25H161.402C161.324 40.1094 161.155 40.8711 160.895 41.5352C160.634 42.1992 160.289 42.7526 159.859 43.1953C159.417 43.651 158.883 43.9961 158.258 44.2305C157.633 44.4648 156.917 44.582 156.109 44.582C155.432 44.582 154.827 44.4909 154.293 44.3086C153.772 44.1133 153.31 43.8333 152.906 43.4688C152.516 43.1302 152.177 42.7266 151.891 42.2578C151.617 41.7891 151.389 41.2682 151.207 40.6953C150.973 40.0052 150.797 39.2435 150.68 38.4102C150.576 37.5768 150.523 36.6849 150.523 35.7344V31.8086C150.523 31.0404 150.562 30.2917 150.641 29.5625C150.732 28.8203 150.862 28.1237 151.031 27.4727C151.253 26.7305 151.533 26.0599 151.871 25.4609C152.223 24.849 152.659 24.3542 153.18 23.9766C153.557 23.6641 153.987 23.4232 154.469 23.2539C154.964 23.0846 155.517 23 156.129 23C157.001 23 157.75 23.1302 158.375 23.3906C159 23.638 159.527 24.0026 159.957 24.4844C160.374 24.9661 160.699 25.5521 160.934 26.2422C161.181 26.9193 161.344 27.681 161.422 28.5273H166.109C165.966 27.1081 165.647 25.819 165.152 24.6602C164.671 23.5013 164.007 22.5117 163.16 21.6914C162.327 20.8841 161.318 20.2591 160.133 19.8164C158.961 19.3737 157.626 19.1523 156.129 19.1523C155.022 19.1523 154 19.3021 153.062 19.6016C152.138 19.901 151.292 20.3177 150.523 20.8516C149.716 21.4375 149 22.1471 148.375 22.9805C147.763 23.8008 147.262 24.7188 146.871 25.7344C146.507 26.6458 146.233 27.6159 146.051 28.6445C145.868 29.6732 145.777 30.7409 145.777 31.8477V35.7344C145.777 36.8932 145.868 38.0065 146.051 39.0742C146.246 40.1419 146.533 41.1315 146.91 42.043C147.288 42.9674 147.75 43.8203 148.297 44.6016C148.857 45.3698 149.508 46.0273 150.25 46.5742C151.018 47.1602 151.891 47.6159 152.867 47.9414C153.857 48.2539 154.938 48.4102 156.109 48.4102C157.542 48.4102 158.844 48.1953 160.016 47.7656C161.201 47.3229 162.223 46.6979 163.082 45.8906C163.928 45.0964 164.612 44.1393 165.133 43.0195C165.654 41.8867 165.979 40.6302 166.109 39.25ZM178.707 35.6758L186.402 48H192.027L181.812 32.082L191.539 19.5625H185.797L178.297 29.4844L175.641 32.9414V19.5625H170.895V48H175.641V39.1133L178.707 35.6758ZM212.066 35.8906V32.0234H200.035V23.4492H213.785V19.5625H195.309V48H200.035V35.8906H212.066ZM235.699 35.2461V31.457H223.941V23.4492H237.574V19.5625H219.234V48H237.672V44.1328H223.941V35.2461H235.699ZM252.555 36.9648L258.004 48H263.023V47.7461L256.949 35.8516C257.73 35.5 258.44 35.0833 259.078 34.6016C259.716 34.1198 260.263 33.5599 260.719 32.9219C261.174 32.2839 261.526 31.5677 261.773 30.7734C262.034 29.9792 262.164 29.0938 262.164 28.1172C262.164 26.6979 261.917 25.4609 261.422 24.4062C260.927 23.3385 260.237 22.4466 259.352 21.7305C258.453 21.0273 257.385 20.4935 256.148 20.1289C254.911 19.7643 253.557 19.5755 252.086 19.5625H243.062V48H247.75V36.9648H252.555ZM247.75 33.1367V23.3906H252.086C252.893 23.4036 253.622 23.5143 254.273 23.7227C254.924 23.918 255.478 24.2109 255.934 24.6016C256.428 25.0182 256.799 25.5391 257.047 26.1641C257.307 26.776 257.438 27.4922 257.438 28.3125C257.438 29.0417 257.32 29.6927 257.086 30.2656C256.852 30.8385 256.526 31.3203 256.109 31.7109C255.641 32.1667 255.068 32.5182 254.391 32.7656C253.727 33 252.978 33.1237 252.145 33.1367H247.75Z" fill="#40916C"/>
<path d="M102.316 64.2358H99.6821V63.5693H102.316C102.867 63.5693 103.313 63.4805 103.656 63.3027C104.003 63.1208 104.255 62.8753 104.411 62.5664C104.572 62.2575 104.652 61.9105 104.652 61.5254C104.652 61.1488 104.572 60.8018 104.411 60.4844C104.255 60.167 104.003 59.9131 103.656 59.7227C103.313 59.528 102.867 59.4307 102.316 59.4307H99.9551V68H99.1743V58.7578H102.316C102.993 58.7578 103.563 58.8742 104.024 59.1069C104.489 59.3397 104.841 59.6634 105.078 60.0781C105.315 60.4928 105.433 60.971 105.433 61.5127C105.433 62.0798 105.315 62.5685 105.078 62.979C104.841 63.3853 104.492 63.6963 104.03 63.9121C103.569 64.1279 102.998 64.2358 102.316 64.2358ZM107.763 62.2681V68H107.007V61.1318H107.744L107.763 62.2681ZM110.194 61.0811L110.175 61.7793C110.09 61.7666 110.008 61.756 109.927 61.7476C109.847 61.7391 109.76 61.7349 109.667 61.7349C109.337 61.7349 109.047 61.7962 108.797 61.9189C108.552 62.0374 108.345 62.2046 108.175 62.4204C108.006 62.632 107.877 62.8817 107.788 63.1694C107.699 63.453 107.648 63.7576 107.636 64.0835L107.356 64.1914C107.356 63.7428 107.403 63.326 107.496 62.9409C107.589 62.5558 107.731 62.2194 107.921 61.9316C108.116 61.6396 108.359 61.4132 108.651 61.2524C108.948 61.0874 109.295 61.0049 109.692 61.0049C109.79 61.0049 109.885 61.0133 109.978 61.0303C110.075 61.043 110.147 61.0599 110.194 61.0811ZM110.841 64.6738V64.4644C110.841 63.965 110.913 63.5037 111.057 63.0806C111.201 62.6574 111.406 62.2913 111.673 61.9824C111.944 61.6735 112.267 61.4344 112.644 61.2651C113.021 61.0916 113.44 61.0049 113.901 61.0049C114.366 61.0049 114.787 61.0916 115.164 61.2651C115.541 61.4344 115.864 61.6735 116.135 61.9824C116.406 62.2913 116.613 62.6574 116.757 63.0806C116.901 63.5037 116.973 63.965 116.973 64.4644V64.6738C116.973 65.1732 116.901 65.6344 116.757 66.0576C116.613 66.4766 116.406 66.8405 116.135 67.1494C115.869 67.4583 115.547 67.6995 115.17 67.873C114.794 68.0423 114.375 68.127 113.914 68.127C113.448 68.127 113.027 68.0423 112.65 67.873C112.274 67.6995 111.95 67.4583 111.679 67.1494C111.408 66.8405 111.201 66.4766 111.057 66.0576C110.913 65.6344 110.841 65.1732 110.841 64.6738ZM111.597 64.4644V64.6738C111.597 65.0505 111.647 65.408 111.749 65.7466C111.851 66.0809 111.999 66.3792 112.193 66.6416C112.388 66.8997 112.629 67.1029 112.917 67.251C113.205 67.3991 113.537 67.4731 113.914 67.4731C114.286 67.4731 114.614 67.3991 114.897 67.251C115.185 67.1029 115.426 66.8997 115.621 66.6416C115.816 66.3792 115.962 66.0809 116.059 65.7466C116.161 65.408 116.211 65.0505 116.211 64.6738V64.4644C116.211 64.092 116.161 63.7386 116.059 63.4043C115.962 63.07 115.814 62.7716 115.615 62.5093C115.42 62.2469 115.179 62.0396 114.891 61.8872C114.603 61.7349 114.273 61.6587 113.901 61.6587C113.528 61.6587 113.198 61.7349 112.911 61.8872C112.627 62.0396 112.386 62.2469 112.187 62.5093C111.992 62.7716 111.844 63.07 111.743 63.4043C111.645 63.7386 111.597 64.092 111.597 64.4644ZM121.144 61.1318V61.7539H117.703V61.1318H121.144ZM118.966 59.3672H119.722V66.3306C119.722 66.6479 119.764 66.887 119.849 67.0479C119.933 67.2087 120.043 67.3166 120.179 67.3716C120.314 67.4266 120.46 67.4541 120.617 67.4541C120.731 67.4541 120.841 67.4478 120.947 67.4351C121.053 67.4181 121.148 67.4012 121.232 67.3843L121.264 68.0254C121.171 68.055 121.05 68.0783 120.902 68.0952C120.754 68.1164 120.606 68.127 120.458 68.127C120.166 68.127 119.908 68.0741 119.684 67.9683C119.459 67.8582 119.284 67.672 119.157 67.4097C119.03 67.1431 118.966 66.7812 118.966 66.3242V59.3672ZM125.39 68.127C124.942 68.127 124.529 68.0444 124.152 67.8794C123.78 67.7144 123.454 67.4816 123.175 67.1812C122.9 66.8807 122.686 66.5252 122.534 66.1147C122.386 65.7 122.312 65.2472 122.312 64.7563V64.4834C122.312 63.9544 122.39 63.4762 122.546 63.0488C122.703 62.6214 122.919 62.2554 123.194 61.9507C123.469 61.646 123.782 61.4132 124.133 61.2524C124.489 61.0874 124.861 61.0049 125.25 61.0049C125.686 61.0049 126.074 61.0832 126.412 61.2397C126.751 61.3921 127.034 61.61 127.263 61.8936C127.495 62.1729 127.671 62.505 127.79 62.8901C127.908 63.271 127.967 63.6921 127.967 64.1533V64.6167H122.769V63.9692H127.212V63.8804C127.203 63.4953 127.125 63.1356 126.977 62.8013C126.833 62.4627 126.617 62.1877 126.33 61.9761C126.042 61.7645 125.682 61.6587 125.25 61.6587C124.929 61.6587 124.633 61.7264 124.362 61.8618C124.095 61.9972 123.865 62.1919 123.67 62.4458C123.479 62.6955 123.331 62.9938 123.226 63.3408C123.124 63.6836 123.073 64.0645 123.073 64.4834V64.7563C123.073 65.1372 123.128 65.4927 123.238 65.8228C123.353 66.1486 123.513 66.4364 123.721 66.686C123.932 66.9357 124.182 67.1304 124.47 67.27C124.757 67.4097 125.075 67.4795 125.422 67.4795C125.828 67.4795 126.188 67.4054 126.501 67.2573C126.814 67.105 127.096 66.8659 127.345 66.54L127.821 66.9082C127.673 67.1283 127.487 67.3314 127.263 67.5176C127.043 67.7038 126.778 67.8519 126.469 67.9619C126.16 68.0719 125.801 68.127 125.39 68.127ZM131.998 67.4731C132.32 67.4731 132.62 67.4139 132.899 67.2954C133.183 67.1727 133.416 66.9928 133.598 66.7559C133.784 66.5146 133.89 66.2205 133.915 65.8735H134.639C134.618 66.3094 134.484 66.6987 134.239 67.0415C133.998 67.38 133.68 67.6466 133.287 67.8413C132.897 68.0317 132.468 68.127 131.998 68.127C131.52 68.127 131.097 68.0402 130.729 67.8667C130.365 67.6932 130.06 67.452 129.814 67.1431C129.569 66.8299 129.383 66.466 129.256 66.0513C129.133 65.6323 129.072 65.1816 129.072 64.6992V64.4326C129.072 63.9502 129.133 63.5016 129.256 63.0869C129.383 62.668 129.569 62.304 129.814 61.9951C130.06 61.682 130.365 61.4386 130.729 61.2651C131.092 61.0916 131.514 61.0049 131.992 61.0049C132.483 61.0049 132.923 61.1043 133.312 61.3032C133.706 61.5021 134.019 61.7835 134.251 62.1475C134.488 62.5114 134.618 62.943 134.639 63.4424H133.915C133.894 63.0742 133.797 62.7568 133.623 62.4902C133.45 62.2236 133.221 62.0184 132.938 61.8745C132.654 61.7306 132.339 61.6587 131.992 61.6587C131.602 61.6587 131.27 61.7349 130.995 61.8872C130.72 62.0353 130.496 62.2406 130.322 62.5029C130.153 62.7611 130.028 63.0573 129.948 63.3916C129.867 63.7217 129.827 64.0687 129.827 64.4326V64.6992C129.827 65.0674 129.865 65.4186 129.941 65.7529C130.022 66.083 130.147 66.3771 130.316 66.6353C130.489 66.8934 130.714 67.0986 130.989 67.251C131.268 67.3991 131.604 67.4731 131.998 67.4731ZM138.765 61.1318V61.7539H135.324V61.1318H138.765ZM136.587 59.3672H137.343V66.3306C137.343 66.6479 137.385 66.887 137.47 67.0479C137.554 67.2087 137.664 67.3166 137.8 67.3716C137.935 67.4266 138.081 67.4541 138.238 67.4541C138.352 67.4541 138.462 67.4478 138.568 67.4351C138.674 67.4181 138.769 67.4012 138.854 67.3843L138.885 68.0254C138.792 68.055 138.672 68.0783 138.523 68.0952C138.375 68.1164 138.227 68.127 138.079 68.127C137.787 68.127 137.529 68.0741 137.305 67.9683C137.08 67.8582 136.905 67.672 136.778 67.4097C136.651 67.1431 136.587 66.7812 136.587 66.3242V59.3672ZM145.569 67.3145L147.708 61.1318H148.527L145.62 69.1045C145.561 69.2611 145.485 69.4346 145.392 69.625C145.303 69.8154 145.184 69.9974 145.036 70.1709C144.892 70.3486 144.71 70.4925 144.49 70.6025C144.274 70.7168 144.01 70.7739 143.697 70.7739C143.616 70.7739 143.513 70.7633 143.386 70.7422C143.263 70.7253 143.174 70.7083 143.119 70.6914L143.113 70.0503C143.159 70.063 143.227 70.0736 143.316 70.082C143.405 70.0905 143.466 70.0947 143.5 70.0947C143.775 70.0947 144.006 70.0482 144.192 69.9551C144.382 69.862 144.541 69.7223 144.668 69.5361C144.795 69.3542 144.907 69.1257 145.004 68.8506L145.569 67.3145ZM143.57 61.1318L145.76 67.0288L145.963 67.8223L145.411 68.1333L142.745 61.1318H143.57ZM149.194 64.6738V64.4644C149.194 63.965 149.266 63.5037 149.41 63.0806C149.554 62.6574 149.759 62.2913 150.025 61.9824C150.296 61.6735 150.62 61.4344 150.997 61.2651C151.373 61.0916 151.792 61.0049 152.253 61.0049C152.719 61.0049 153.14 61.0916 153.517 61.2651C153.893 61.4344 154.217 61.6735 154.488 61.9824C154.759 62.2913 154.966 62.6574 155.11 63.0806C155.254 63.5037 155.326 63.965 155.326 64.4644V64.6738C155.326 65.1732 155.254 65.6344 155.11 66.0576C154.966 66.4766 154.759 66.8405 154.488 67.1494C154.221 67.4583 153.9 67.6995 153.523 67.873C153.146 68.0423 152.727 68.127 152.266 68.127C151.801 68.127 151.38 68.0423 151.003 67.873C150.626 67.6995 150.303 67.4583 150.032 67.1494C149.761 66.8405 149.554 66.4766 149.41 66.0576C149.266 65.6344 149.194 65.1732 149.194 64.6738ZM149.949 64.4644V64.6738C149.949 65.0505 150 65.408 150.102 65.7466C150.203 66.0809 150.351 66.3792 150.546 66.6416C150.741 66.8997 150.982 67.1029 151.27 67.251C151.557 67.3991 151.889 67.4731 152.266 67.4731C152.639 67.4731 152.966 67.3991 153.25 67.251C153.538 67.1029 153.779 66.8997 153.974 66.6416C154.168 66.3792 154.314 66.0809 154.412 65.7466C154.513 65.408 154.564 65.0505 154.564 64.6738V64.4644C154.564 64.092 154.513 63.7386 154.412 63.4043C154.314 63.07 154.166 62.7716 153.967 62.5093C153.773 62.2469 153.531 62.0396 153.244 61.8872C152.956 61.7349 152.626 61.6587 152.253 61.6587C151.881 61.6587 151.551 61.7349 151.263 61.8872C150.98 62.0396 150.738 62.2469 150.54 62.5093C150.345 62.7716 150.197 63.07 150.095 63.4043C149.998 63.7386 149.949 64.092 149.949 64.4644ZM161.299 66.4131V61.1318H162.061V68H161.331L161.299 66.4131ZM161.438 65.1436L161.832 65.1309C161.832 65.5625 161.781 65.9603 161.68 66.3242C161.578 66.6882 161.419 67.0055 161.204 67.2764C160.988 67.5472 160.708 67.7567 160.366 67.9048C160.023 68.0529 159.61 68.127 159.128 68.127C158.794 68.127 158.487 68.0804 158.208 67.9873C157.932 67.89 157.695 67.7376 157.497 67.5303C157.298 67.3229 157.143 67.0542 157.033 66.7241C156.927 66.394 156.875 65.9941 156.875 65.5244V61.1318H157.63V65.5371C157.63 65.9053 157.67 66.2121 157.75 66.4575C157.835 66.703 157.949 66.8997 158.093 67.0479C158.241 67.196 158.411 67.3018 158.601 67.3652C158.792 67.4287 158.997 67.4604 159.217 67.4604C159.775 67.4604 160.215 67.3525 160.537 67.1367C160.863 66.9209 161.094 66.6374 161.229 66.2861C161.369 65.9307 161.438 65.5498 161.438 65.1436ZM164.803 62.2681V68H164.047V61.1318H164.784L164.803 62.2681ZM167.234 61.0811L167.215 61.7793C167.13 61.7666 167.048 61.756 166.967 61.7476C166.887 61.7391 166.8 61.7349 166.707 61.7349C166.377 61.7349 166.087 61.7962 165.837 61.9189C165.592 62.0374 165.385 62.2046 165.215 62.4204C165.046 62.632 164.917 62.8817 164.828 63.1694C164.739 63.453 164.688 63.7576 164.676 64.0835L164.396 64.1914C164.396 63.7428 164.443 63.326 164.536 62.9409C164.629 62.5558 164.771 62.2194 164.961 61.9316C165.156 61.6396 165.399 61.4132 165.691 61.2524C165.988 61.0874 166.335 61.0049 166.732 61.0049C166.83 61.0049 166.925 61.0133 167.018 61.0303C167.115 61.043 167.187 61.0599 167.234 61.0811ZM172.35 62.4521V70.6406H171.588V61.1318H172.299L172.35 62.4521ZM177.124 64.5024V64.6357C177.124 65.1478 177.064 65.6175 176.946 66.0449C176.827 66.4723 176.656 66.8426 176.432 67.1558C176.212 67.4647 175.939 67.7038 175.613 67.873C175.287 68.0423 174.917 68.127 174.502 68.127C174.091 68.127 173.725 68.0635 173.404 67.9365C173.082 67.8096 172.805 67.6297 172.572 67.397C172.344 67.16 172.16 66.8849 172.02 66.5718C171.885 66.2544 171.789 65.9074 171.734 65.5308V63.7725C171.798 63.3577 171.902 62.9811 172.045 62.6426C172.189 62.304 172.373 62.012 172.598 61.7666C172.826 61.5212 173.097 61.3328 173.41 61.2017C173.723 61.0705 174.081 61.0049 174.483 61.0049C174.902 61.0049 175.274 61.0874 175.6 61.2524C175.93 61.4132 176.207 61.6481 176.432 61.957C176.66 62.2617 176.832 62.6299 176.946 63.0615C177.064 63.4889 177.124 63.9692 177.124 64.5024ZM176.362 64.6357V64.5024C176.362 64.1004 176.319 63.728 176.235 63.3853C176.154 63.0425 176.03 62.7441 175.86 62.4902C175.695 62.2321 175.484 62.0311 175.226 61.8872C174.972 61.7433 174.669 61.6714 174.318 61.6714C173.954 61.6714 173.643 61.7327 173.385 61.8555C173.131 61.974 172.919 62.1326 172.75 62.3315C172.581 62.5262 172.447 62.7399 172.35 62.9727C172.253 63.2054 172.181 63.4339 172.134 63.6582V65.6831C172.215 66.0047 172.344 66.3031 172.521 66.5781C172.699 66.849 172.936 67.0669 173.232 67.2319C173.533 67.3927 173.899 67.4731 174.331 67.4731C174.678 67.4731 174.978 67.4012 175.232 67.2573C175.486 67.1134 175.695 66.9124 175.86 66.6543C176.03 66.3962 176.154 66.0957 176.235 65.7529C176.319 65.4102 176.362 65.0378 176.362 64.6357ZM179.567 62.2681V68H178.812V61.1318H179.548L179.567 62.2681ZM181.999 61.0811L181.979 61.7793C181.895 61.7666 181.812 61.756 181.732 61.7476C181.652 61.7391 181.565 61.7349 181.472 61.7349C181.142 61.7349 180.852 61.7962 180.602 61.9189C180.357 62.0374 180.149 62.2046 179.98 62.4204C179.811 62.632 179.682 62.8817 179.593 63.1694C179.504 63.453 179.453 63.7576 179.44 64.0835L179.161 64.1914C179.161 63.7428 179.208 63.326 179.301 62.9409C179.394 62.5558 179.536 62.2194 179.726 61.9316C179.921 61.6396 180.164 61.4132 180.456 61.2524C180.752 61.0874 181.099 61.0049 181.497 61.0049C181.594 61.0049 181.69 61.0133 181.783 61.0303C181.88 61.043 181.952 61.0599 181.999 61.0811ZM184.036 61.1318V68H183.281V61.1318H184.036ZM183.147 59.145C183.147 59.0011 183.192 58.8805 183.281 58.7832C183.374 58.6816 183.501 58.6309 183.662 58.6309C183.822 58.6309 183.949 58.6816 184.042 58.7832C184.14 58.8805 184.188 59.0011 184.188 59.145C184.188 59.2847 184.14 59.4053 184.042 59.5068C183.949 59.6042 183.822 59.6528 183.662 59.6528C183.501 59.6528 183.374 59.6042 183.281 59.5068C183.192 59.4053 183.147 59.2847 183.147 59.145ZM188.137 67.27L190.339 61.1318H191.12L188.549 68H187.997L188.137 67.27ZM186.144 61.1318L188.372 67.2891L188.492 68H187.934L185.356 61.1318H186.144ZM196.446 66.7686V63.2266C196.446 62.9007 196.378 62.6193 196.243 62.3823C196.107 62.1453 195.908 61.9634 195.646 61.8364C195.384 61.7095 195.06 61.646 194.675 61.646C194.319 61.646 194.002 61.7095 193.723 61.8364C193.448 61.9591 193.23 62.1263 193.069 62.3379C192.912 62.5452 192.834 62.7759 192.834 63.0298L192.072 63.0234C192.072 62.7653 192.136 62.5156 192.263 62.2744C192.39 62.0332 192.569 61.8174 192.802 61.627C193.035 61.4365 193.312 61.2863 193.634 61.1763C193.96 61.062 194.317 61.0049 194.707 61.0049C195.197 61.0049 195.629 61.0874 196.001 61.2524C196.378 61.4175 196.672 61.665 196.884 61.9951C197.095 62.3252 197.201 62.7399 197.201 63.2393V66.5591C197.201 66.7961 197.218 67.0415 197.252 67.2954C197.29 67.5493 197.343 67.7588 197.411 67.9238V68H196.604C196.554 67.8477 196.514 67.6572 196.484 67.4287C196.458 67.196 196.446 66.9759 196.446 66.7686ZM196.624 64.001L196.636 64.585H195.145C194.755 64.585 194.406 64.6209 194.097 64.6929C193.792 64.7606 193.534 64.8621 193.323 64.9976C193.111 65.1287 192.948 65.2874 192.834 65.4736C192.724 65.6598 192.669 65.8714 192.669 66.1084C192.669 66.3538 192.73 66.5781 192.853 66.7812C192.98 66.9844 193.158 67.1473 193.386 67.27C193.619 67.3885 193.894 67.4478 194.211 67.4478C194.635 67.4478 195.007 67.3695 195.329 67.2129C195.654 67.0563 195.923 66.8511 196.135 66.5972C196.346 66.3433 196.488 66.0661 196.56 65.7656L196.89 66.2036C196.835 66.4152 196.734 66.6331 196.585 66.8574C196.442 67.0775 196.253 67.2848 196.021 67.4795C195.788 67.6699 195.513 67.8265 195.195 67.9492C194.882 68.0677 194.527 68.127 194.129 68.127C193.68 68.127 193.289 68.0423 192.955 67.873C192.625 67.7038 192.366 67.4731 192.18 67.1812C191.998 66.8849 191.907 66.5506 191.907 66.1782C191.907 65.8397 191.979 65.5371 192.123 65.2705C192.267 64.9997 192.474 64.7712 192.745 64.585C193.02 64.3945 193.35 64.2507 193.735 64.1533C194.125 64.0518 194.561 64.001 195.043 64.001H196.624ZM201.771 67.4731C202.093 67.4731 202.394 67.4139 202.673 67.2954C202.956 67.1727 203.189 66.9928 203.371 66.7559C203.557 66.5146 203.663 66.2205 203.688 65.8735H204.412C204.391 66.3094 204.258 66.6987 204.012 67.0415C203.771 67.38 203.454 67.6466 203.06 67.8413C202.671 68.0317 202.241 68.127 201.771 68.127C201.293 68.127 200.87 68.0402 200.502 67.8667C200.138 67.6932 199.833 67.452 199.588 67.1431C199.342 66.8299 199.156 66.466 199.029 66.0513C198.907 65.6323 198.845 65.1816 198.845 64.6992V64.4326C198.845 63.9502 198.907 63.5016 199.029 63.0869C199.156 62.668 199.342 62.304 199.588 61.9951C199.833 61.682 200.138 61.4386 200.502 61.2651C200.866 61.0916 201.287 61.0049 201.765 61.0049C202.256 61.0049 202.696 61.1043 203.085 61.3032C203.479 61.5021 203.792 61.7835 204.025 62.1475C204.262 62.5114 204.391 62.943 204.412 63.4424H203.688C203.667 63.0742 203.57 62.7568 203.396 62.4902C203.223 62.2236 202.994 62.0184 202.711 61.8745C202.427 61.7306 202.112 61.6587 201.765 61.6587C201.376 61.6587 201.044 61.7349 200.769 61.8872C200.493 62.0353 200.269 62.2406 200.096 62.5029C199.926 62.7611 199.802 63.0573 199.721 63.3916C199.641 63.7217 199.601 64.0687 199.601 64.4326V64.6992C199.601 65.0674 199.639 65.4186 199.715 65.7529C199.795 66.083 199.92 66.3771 200.089 66.6353C200.263 66.8934 200.487 67.0986 200.762 67.251C201.042 67.3991 201.378 67.4731 201.771 67.4731ZM207.979 67.3145L210.119 61.1318H210.938L208.03 69.1045C207.971 69.2611 207.895 69.4346 207.802 69.625C207.713 69.8154 207.594 69.9974 207.446 70.1709C207.302 70.3486 207.12 70.4925 206.9 70.6025C206.685 70.7168 206.42 70.7739 206.107 70.7739C206.027 70.7739 205.923 70.7633 205.796 70.7422C205.673 70.7253 205.584 70.7083 205.529 70.6914L205.523 70.0503C205.569 70.063 205.637 70.0736 205.726 70.082C205.815 70.0905 205.876 70.0947 205.91 70.0947C206.185 70.0947 206.416 70.0482 206.602 69.9551C206.792 69.862 206.951 69.7223 207.078 69.5361C207.205 69.3542 207.317 69.1257 207.415 68.8506L207.979 67.3145ZM205.98 61.1318L208.17 67.0288L208.373 67.8223L207.821 68.1333L205.155 61.1318H205.98Z" fill="#40916C"/>
</svg>
